<svg width="35" height="34" viewBox="0 0 35 34" fill="none" xmlns="http://www.w3.org/2000/svg">
<path fill-rule="evenodd" clip-rule="evenodd" d="M22.885 17C22.885 20.1295 20.3479 22.6666 17.2184 22.6666C14.0888 22.6666 11.5517 20.1295 11.5517 17C11.5517 13.8703 14.0888 11.3333 17.2184 11.3333C20.3479 11.3333 22.885 13.8703 22.885 17ZM20.76 17C20.76 18.956 19.1744 20.5416 17.2184 20.5416C15.2624 20.5416 13.6767 18.956 13.6767 17C13.6767 15.044 15.2624 13.4583 17.2184 13.4583C19.1744 13.4583 20.76 15.044 20.76 17Z" fill="#BBBCBD"/>
<path fill-rule="evenodd" clip-rule="evenodd" d="M32.2433 18.1023C32.6238 17.4098 32.6238 16.5901 32.2433 15.8977C30.6781 13.0495 25.7939 5.66663 17.2184 5.66663C8.64282 5.66663 3.75869 13.0495 2.19356 15.8977C1.81298 16.5901 1.81298 17.4098 2.19356 18.1023C3.75869 20.9505 8.64282 28.3333 17.2184 28.3333C25.7939 28.3333 30.6781 20.9505 32.2433 18.1023ZM25.9517 22.6943C28.1889 20.715 29.6619 18.3872 30.3809 17.0789C30.3993 17.0452 30.4036 17.0191 30.4036 17C30.4036 16.9808 30.3993 16.9548 30.3809 16.9211C29.6619 15.6128 28.1889 13.2849 25.9517 11.3056C23.7325 9.34228 20.8479 7.79163 17.2184 7.79163C13.5889 7.79163 10.7043 9.34228 8.48513 11.3056C6.24793 13.2849 4.77484 15.6128 4.05589 16.9211C4.03738 16.9548 4.03313 16.9808 4.03313 17C4.03313 17.0191 4.03738 17.0452 4.05589 17.0789C4.77484 18.3872 6.24793 20.715 8.48513 22.6943C10.7043 24.6576 13.5889 26.2083 17.2184 26.2083C20.8479 26.2083 23.7325 24.6576 25.9517 22.6943Z" fill="#BBBCBD"/>
</svg>
